<?xml version="1.0" encoding="UTF-8"?>
<svg id="Layer_1" data-name="Layer 1" xmlns="http://www.w3.org/2000/svg" viewBox="0 0 32 32">
  <defs>
    <style>
      .cls-1 {
        fill: #65748b;
      }

      .cls-2 {
        fill: #f1f5f9;
      }
    </style>
  </defs>
  <circle class="cls-2" cx="16" cy="16" r="16"/>
  <g>
    <path class="cls-1" d="M20.39,15.17c-.5,0-1.01.05-1.5-.01-1.15-.15-1.97-.97-2.06-2.11-.07-.95-.07-1.91,0-2.86.09-1.18.95-2.04,2.13-2.13.95-.07,1.91-.07,2.86,0,1.18.09,2.03.93,2.12,2.11.07.97.07,1.95,0,2.91-.1,1.23-1.1,2.08-2.33,2.12-.41.01-.81,0-1.22,0v-.03ZM20.37,13.62c.38,0,.76,0,1.13,0,.55,0,.89-.33.9-.88.01-.76.01-1.51,0-2.27,0-.54-.33-.87-.87-.87-.76-.01-1.51-.01-2.27,0-.55,0-.88.34-.88.89,0,.75,0,1.49,0,2.24,0,.55.34.88.88.89.37,0,.74,0,1.1,0Z"/>
    <path class="cls-1" d="M16.82,20.39c0-.46-.03-.93,0-1.39.11-1.18.95-2.07,2.14-2.16.95-.07,1.91-.07,2.86,0,1.18.09,2.04.95,2.13,2.13.07.94.07,1.89,0,2.83-.09,1.2-.94,2.06-2.14,2.15-.97.07-1.95.07-2.91-.01-1.19-.1-2.05-1.1-2.09-2.3-.01-.42,0-.83,0-1.25,0,0,0,0,0,0ZM20.4,18.38c-.37,0-.74,0-1.1,0,0,0-.02,0-.03,0-.54.01-.87.33-.88.86,0,.76,0,1.53,0,2.29,0,.51.32.85.83.86.78.02,1.57.02,2.35,0,.51-.01.83-.34.84-.85.01-.77.01-1.55,0-2.32,0-.52-.35-.84-.87-.85-.38,0-.76,0-1.13,0Z"/>
    <path class="cls-1" d="M15.18,11.62c0,.48.05.97,0,1.44-.14,1.16-.94,2-2.11,2.09-.96.08-1.93.08-2.89,0-1.19-.1-2.04-.97-2.12-2.17-.06-.92-.06-1.85,0-2.77.08-1.2.93-2.07,2.13-2.16.97-.07,1.95-.07,2.91,0,1.21.1,2.07,1.1,2.1,2.31.01.42,0,.83,0,1.25,0,0-.01,0-.02,0ZM13.62,11.63c0-.38,0-.76,0-1.13,0-.56-.32-.89-.88-.9-.76-.01-1.51-.01-2.27,0-.54,0-.87.33-.88.87-.01.76,0,1.51,0,2.27,0,.55.34.88.89.88.75,0,1.49,0,2.24,0,.55,0,.88-.33.89-.88,0-.37,0-.74,0-1.1Z"/>
    <path class="cls-1" d="M11.61,16.83c.49,0,.99-.05,1.47,0,1.16.14,1.99.96,2.08,2.12.07.95.07,1.91,0,2.86-.09,1.2-.98,2.06-2.19,2.14-.91.06-1.83.06-2.75,0-1.21-.08-2.09-.94-2.18-2.14-.07-.97-.07-1.95.01-2.91.1-1.19,1.09-2.05,2.3-2.09.42-.01.83,0,1.25,0,0,0,0,.01,0,.02ZM13.62,20.39c0-.37,0-.74,0-1.1,0-.57-.33-.9-.89-.91-.75,0-1.49,0-2.24,0-.54,0-.88.32-.89.86-.01.76-.01,1.53,0,2.29,0,.52.33.86.85.87.77.01,1.55.02,2.32,0,.52-.01.83-.35.84-.87,0-.38,0-.76,0-1.13Z"/>
  </g>
</svg>