<?xml version="1.0" encoding="UTF-8"?>
<svg id="Layer_1" data-name="Layer 1" xmlns="http://www.w3.org/2000/svg" viewBox="0 0 32 32">
  <defs>
    <style>
      .cls-1 {
        fill: #dce9f7;
      }

      .cls-2 {
        fill: #507abd;
      }
    </style>
  </defs>
  <circle class="cls-1" cx="16" cy="16" r="16"/>
  <g>
    <path class="cls-2" d="M6,14.86c.09-.14.22-.19.38-.19.29.01.59,0,.88.03.62.08,1.04.58,1.05,1.21,0,.1,0,.21,0,.33.32,0,.63,0,.93,0,.93,0,.83-.03.83.84,0,.41,0,.82,0,1.23,0,.01,0,.03.01.07.06,0,.12,0,.18,0,.73,0,1.46,0,2.19,0,.41,0,.71-.17.92-.52.21-.35.41-.7.63-1.07-.35-.2-.68-.4-1.02-.59-1.02-.59-2.04-1.18-3.06-1.76-.86-.5-1.1-1.37-.6-2.23.74-1.29,1.49-2.58,2.23-3.87.49-.86,1.36-1.09,2.22-.6,4,2.31,7.99,4.61,11.99,6.92.29.17.32.27.15.56-.63,1.1-1.27,2.2-1.9,3.29-.16.27-.26.3-.54.15-.15-.08-.29-.17-.45-.26-.07.07-.13.14-.2.21-.71.68-1.53.87-2.46.55-.11-.04-.18-.03-.28.04-.54.4-1.11.44-1.7.11-.7-.39-1.4-.8-2.1-1.21-.06-.03-.11-.06-.19-.1-.2.35-.41.68-.6,1.03-.27.48-.63.88-1.08,1.18-.54.36-1.14.57-1.79.58-.84,0-1.68,0-2.55,0,0,.09,0,.16,0,.24,0,.33,0,.66,0,1,0,.32-.08.4-.41.4-.38,0-.76,0-1.13,0-.06,0-.13,0-.22,0,0,.28,0,.54,0,.81,0,.74-.52,1.26-1.26,1.27-.2,0-.4,0-.61,0-.17.01-.32-.03-.44-.16v-9.49ZM25.34,15.08s-.06-.04-.08-.06c-3.94-2.28-7.88-4.55-11.82-6.83-.53-.3-1.08-.15-1.39.38-.27.45-.53.91-.79,1.37-.15.26-.3.51-.45.78,4.27,2.46,8.52,4.92,12.79,7.38.59-1.01,1.16-2.01,1.75-3.03ZM20.78,17.12c-3.42-1.98-6.83-3.94-10.25-5.92-.29.51-.58.99-.84,1.49-.07.13-.08.32-.07.47.02.35.22.6.52.77,1.22.7,2.43,1.4,3.65,2.1,1.6.93,3.21,1.85,4.81,2.78.51.3,1.07.18,1.37-.29.28-.45.54-.92.82-1.4ZM6.56,15.25v8.7c.14,0,.27,0,.4,0,.55,0,.8-.25.8-.8,0-2.38,0-4.75,0-7.13,0-.05,0-.1,0-.16-.03-.31-.24-.58-.53-.61-.22-.02-.44,0-.67,0ZM14.47,17.07c-.21.36-.41.69-.61,1.03-.32.55-.79.84-1.44.83-.72,0-1.43,0-2.15,0-.07,0-.14,0-.2,0v1.33c.06,0,.11,0,.16,0,.76,0,1.52,0,2.28,0,.64,0,1.22-.21,1.73-.61.65-.5.92-1.25,1.36-1.91-.39-.22-.76-.44-1.15-.66ZM8.31,21.85h1.19v-5.03h-1.19v5.03ZM20.55,18.63c.59.32,1.61.04,1.95-.52-.41-.24-.82-.47-1.24-.71-.24.42-.48.83-.71,1.24Z"/>
    <path class="cls-2" d="M24.01,15.71c0,.58-.47,1.06-1.05,1.06-.57,0-1.05-.48-1.05-1.06,0-.58.47-1.05,1.06-1.05.59,0,1.05.47,1.05,1.05ZM22.95,15.21c-.27,0-.5.22-.5.49,0,.28.22.5.51.5.27,0,.5-.22.5-.49,0-.28-.23-.51-.51-.5Z"/>
    <path class="cls-2" d="M10.69,12.49c.11.05.18.07.24.1.7.4,1.41.81,2.11,1.22.19.11.25.27.16.42-.09.15-.24.17-.43.06-.71-.41-1.42-.82-2.13-1.23-.14-.08-.24-.19-.17-.35.04-.09.15-.15.22-.23Z"/>
  </g>
</svg>