<?xml version="1.0" encoding="UTF-8"?>
<svg id="Layer_1" data-name="Layer 1" xmlns="http://www.w3.org/2000/svg" viewBox="0 0 32 32">
  <defs>
    <style>
      .cls-1 {
        fill: #fff3c8;
      }

      .cls-2 {
        fill: #f49e1e;
      }
    </style>
  </defs>
  <circle class="cls-1" cx="16" cy="16" r="16"/>
  <g>
    <path class="cls-2" d="M17.35,6c.14.05.43.29.43.45v3.54h2.01c.61,0,1.5.89,1.5,1.5v.84h3.22c.08,0,.41.12.5.16.52.24.88.77,1,1.32v5.23c-.42,1.87-2.22,1.44-3.68,1.49-1.93,2.09-5.25,2.05-7.18,0h-7.48c-.83-.07-1.51-.73-1.61-1.55.09-1.63-.13-3.42,0-5.04.06-.7.76-1.62,1.5-1.62h3.22v-.84c0-.61.89-1.5,1.5-1.5h2.01v-3.54c0-.16.28-.39.43-.45h2.65ZM16.61,7.17h-1.17v2.81h1.17v-2.81ZM11.93,11.64c-.03.2.02.47,0,.68h8.19v-.68c0-.21-.35-.5-.57-.49l-7.18.03c-.2.05-.4.26-.44.46ZM15.55,13.5h-7.85c-.21,0-.5.35-.49.57.09,1.51-.11,3.15,0,4.65.01.16.05.33.16.46.04.05.29.19.33.19h6.65c-.93-2.03-.45-4.38,1.21-5.86ZM18.47,13.51c-2.83.22-4.38,3.44-2.77,5.8,1.47,2.16,4.69,2.13,6.13-.05,1.7-2.57-.31-5.99-3.36-5.75ZM24.34,13.5h-2.4c1.66,1.48,2.14,3.83,1.21,5.86h1.19c.21,0,.5-.35.49-.57-.09-1.51.11-3.15,0-4.65-.02-.3-.17-.59-.49-.64Z"/>
    <path class="cls-2" d="M15.85,22.54c.17.16.2.39.14.6-.03.14-.79,1.45-.89,1.57-.42.46-1.18.07-1-.58.04-.14.77-1.42.88-1.54.23-.26.62-.29.88-.05Z"/>
    <path class="cls-2" d="M21.98,22.38c.18-.03.41.06.53.19.11.11.81,1.34.87,1.51.24.65-.51,1.1-.97.66-.11-.1-.81-1.33-.88-1.5-.14-.38.01-.79.44-.85Z"/>
    <path class="cls-2" d="M18.62,23.28c.36-.06.67.16.71.52.04.32.05,1.45,0,1.75-.11.62-1.08.62-1.16-.07-.04-.32-.05-1.45,0-1.75.04-.21.24-.41.45-.45Z"/>
    <path class="cls-2" d="M8.88,14.68h3.37c.63.17.61,1.03-.03,1.16h-3.34c-.61-.17-.61-1,0-1.16Z"/>
    <path class="cls-2" d="M8.88,17.03h3.37c.63.17.61,1.03-.03,1.16h-3.34c-.61-.17-.61-1,0-1.16Z"/>
    <path class="cls-2" d="M18.43,14.68c2.52-.29,3.89,2.86,1.92,4.5-1.73,1.44-4.33,0-4.13-2.23.1-1.14,1.08-2.15,2.21-2.28ZM18.58,15.86c-1.71.19-1.51,2.83.26,2.72s1.61-2.93-.26-2.72Z"/>
  </g>
</svg>