<?xml version="1.0" encoding="UTF-8"?>
<svg id="Layer_1" data-name="Layer 1" xmlns="http://www.w3.org/2000/svg" viewBox="0 0 32 32">
  <defs>
    <style>
      .cls-1 {
        fill: #ece8f3;
      }

      .cls-2 {
        fill: #7562ab;
      }
    </style>
  </defs>
  <circle class="cls-1" cx="16" cy="16" r="16"/>
  <g>
    <path class="cls-2" d="M26,17.88c-.02.07-.05.14-.07.22-.22.71-.85,1.18-1.59,1.19-.18,0-.35,0-.55,0,0,.23,0,.44,0,.65,0,.3-.15.47-.4.48-.25,0-.42-.18-.42-.48,0-.21,0-.42,0-.64h-13.93c0,.19,0,.38,0,.58,0,.09,0,.18-.03.27-.05.17-.23.28-.41.27-.19-.01-.35-.14-.37-.34-.02-.25,0-.51,0-.79-.18,0-.33,0-.48,0-1.02,0-1.73-.71-1.73-1.73,0-1.41,0-2.81,0-4.22,0-1.03.71-1.74,1.74-1.74,5.51,0,11.03,0,16.54,0,.86,0,1.49.5,1.68,1.34,0,.02.02.04.03.07v4.88ZM16.01,12.41c-2.72,0-5.44,0-8.16,0-.61,0-1.05.34-1.04,1.04.03,1.36,0,2.72,0,4.08,0,.59.35.94.93.94,5.5,0,11,0,16.5,0,.58,0,.93-.35.93-.94,0-1.37,0-2.75,0-4.12,0-.67-.32-1-.99-1-2.73,0-5.46,0-8.18,0Z"/>
    <path class="cls-2" d="M12.54,13.97c1.31,0,2.63,0,3.94,0,.39,0,.53.14.53.53,0,.63,0,1.26,0,1.89,0,.33-.16.5-.49.5-2.65,0-5.31,0-7.96,0-.32,0-.48-.17-.48-.48,0-.65,0-1.3,0-1.95,0-.33.16-.48.5-.48,1.32,0,2.64,0,3.96,0ZM8.92,16.06h7.26v-1.25h-7.26v1.25Z"/>
    <path class="cls-2" d="M24.33,15.43c0,.92-.74,1.66-1.66,1.66-.9,0-1.65-.74-1.66-1.65,0-.91.75-1.67,1.66-1.67.92,0,1.66.74,1.66,1.66ZM23.51,15.43c0-.47-.37-.84-.84-.84-.46,0-.82.38-.82.84,0,.47.38.85.84.84.46,0,.82-.38.82-.84Z"/>
    <path class="cls-2" d="M18.97,15.02c.11,0,.22,0,.33,0,.22,0,.4.19.4.4,0,.2-.16.4-.37.41-.25.02-.49.02-.74,0-.22-.01-.38-.21-.37-.43.01-.21.17-.37.39-.38.12,0,.23,0,.35,0Z"/>
  </g>
</svg>