<?xml version="1.0" encoding="UTF-8"?>
<svg id="Layer_1" data-name="Layer 1" xmlns="http://www.w3.org/2000/svg" viewBox="0 0 32 32" fill="#ffffff">
  <path d="M2.81,19.63c.21.21.37.54.4.84.22,2.03-.15,4.45,0,6.54.05.79.24,1.44,1.05,1.73,7.79.19,15.65.16,23.44.02.84-.25,1.05-.95,1.11-1.74.15-2.08-.19-4.41,0-6.47.16-1.8,2.97-1.75,3.15-.07-.37,4.16,1.68,10.52-4.08,11.53H4.29C-1.6,31.15.41,24.72.06,20.54c.05-1.33,1.9-1.75,2.74-.91Z"/>
  <path d="M14.43,5.48c-1.24,1.04-2.3,2.46-3.52,3.49-.78.66-1.56.96-2.4.15-.88-.85-.53-1.68.15-2.48,1.92-2.24,4.49-4.35,6.56-6.48.52-.2,1.02-.25,1.54,0,2.07,2.12,4.65,4.23,6.57,6.48.57.66.93,1.24.45,2.11-.38.69-1.2,1.02-1.95.75-.96-.36-3.07-3.15-4.04-3.9-.08-.06-.09-.14-.22-.11v15.81c0,.13-.32.61-.43.71-.59.55-1.79.54-2.34-.06-.09-.1-.37-.55-.37-.65V5.48Z"/>
</svg>