<?xml version="1.0" encoding="UTF-8"?>
<svg id="Layer_1" data-name="Layer 1" xmlns="http://www.w3.org/2000/svg" viewBox="0 0 32 32">
  <defs>
    <style>
      .cls-1 {
        fill: #f1f0f0;
      }
    </style>
  </defs>
  <path class="cls-1" d="M23.61,0c.26.2.47.47.69.72,1.15,1.37,2.26,2.79,3.37,4.19.29.36,1.7,2.03,1.75,2.31v20.8c0,.35-.4.65-.72.65h-1.97v2.91c0,.13-.47.48-.65.41l-23.13-.05-.36-.39V3.81c.06-.27.44-.5.69-.5h1.97V.66c0-.28.27-.53.5-.66h17.87ZM22.73,1.31H6.61v2h14.03c.12,0,.43.13.53.22.42.36.91,1.17,1.31,1.63.07.08.15.18.25.22V1.31ZM27.36,6.69l-3.31-4.12v4.12h3.31ZM20.05,4.69H3.86v25.99h21.55V11.31h-4.84c-.13,0-.53-.35-.53-.47v-6.15ZM24.67,10l-3.31-4.12v4.12h3.31ZM28.11,8h-3.25l1.87,2.41v16.9h1.37V8Z"/>
  <path class="cls-1" d="M21.84,15.1c-.07.08-.21.12-.3.17l-13.83-.02c-.6-.29-.54-1.11.13-1.26h13.63c.51.05.73.76.38,1.11Z"/>
  <path class="cls-1" d="M21.84,19.1c-.07.08-.21.12-.3.17l-13.83-.02c-.6-.29-.54-1.11.13-1.26h13.63c.51.05.73.76.38,1.11Z"/>
  <path class="cls-1" d="M21.84,23.09c-.07.08-.21.12-.3.17l-13.83-.02c-.62-.3-.53-1.17.19-1.26h13.56c.51.05.73.76.38,1.1Z"/>
  <path class="cls-1" d="M21.84,27.09c-.07.08-.21.12-.3.17l-13.83-.02c-.62-.3-.53-1.17.19-1.26h13.56c.51.05.73.76.38,1.1Z"/>
</svg>