<?xml version="1.0" encoding="UTF-8"?>
<svg id="Layer_1" data-name="Layer 1" xmlns="http://www.w3.org/2000/svg" viewBox="0 0 32 32">
  <defs>
    <style>
      .cls-1 {
        fill: #f1f0f0;
      }
    </style>
  </defs>
  <path class="cls-1" d="M.02,4.18C0,3.95,0,3.42.02,3.19.45-1.3,5.76-.9,5.64,3.81S.43,8.53.02,4.18ZM3.5,2.81c-.86-1.13-2.2.62-1.33,1.75s2.2-.62,1.33-1.75Z"/>
  <path class="cls-1" d="M.02,16.49c-.02-.23-.02-.76,0-.98.42-4.36,5.52-4.18,5.63.37S.45,20.98.02,16.49ZM3.5,15.12c-.86-1.13-2.2.62-1.33,1.75s2.2-.62,1.33-1.75Z"/>
  <path class="cls-1" d="M.02,28.8c-.02-.23-.02-.76,0-.98.43-4.5,5.75-4.09,5.63.62S.43,33.16.02,28.8ZM3.5,27.43c-.86-1.13-2.2.62-1.33,1.75s2.2-.62,1.33-1.75Z"/>
  <path class="cls-1" d="M10,.01h19.48c3.39.59,3.35,6.85-.06,7.36H10.06c-3.33-.58-3.38-6.72-.05-7.36ZM29.87,2.81c-.15-.2-.48-.35-.69-.36H10.36c-1.23.08-1.3,2.29-.06,2.47l19.19-.08c.65-.25.87-1.39.38-2.03Z"/>
  <path class="cls-1" d="M10,12.32h19.48c3.39.59,3.35,6.85-.06,7.36H10.06c-3.33-.58-3.38-6.72-.05-7.36ZM29.87,15.12c-.15-.2-.48-.35-.69-.36H10.36c-1.23.08-1.3,2.29-.06,2.47l19.19-.08c.65-.25.87-1.39.38-2.03Z"/>
  <path class="cls-1" d="M10,24.64h19.48c3.39.59,3.35,6.85-.06,7.36H10.06c-3.33-.58-3.38-6.72-.05-7.36ZM29.87,27.43c-.15-.2-.48-.35-.69-.36H10.36c-1.23.08-1.3,2.29-.06,2.47l19.19-.08c.65-.25.87-1.39.38-2.03Z"/>
</svg>