<?xml version="1.0" encoding="UTF-8"?>
<svg id="Layer_1" data-name="Layer 1" xmlns="http://www.w3.org/2000/svg" viewBox="0 0 233.96 364.37">
  <path d="M126.12.35c30.29,3.06,57,30.4,59.08,60.74l.12,90.87c50.82,37.81,64.36,107.82,28.47,160.95-26.97,39.92-76.76,59.59-124.1,48.32-7.21-1.72-16.99-3.72-16.99-12.94,0-5.74,5.18-11.04,11.01-10.94,5.25.09,15.06,4.02,21.51,4.81,98.53,12.07,147.64-117.39,65.66-173.64C83.19,108.35-23.07,217.34,39.44,303.39c3.1,4.27,13.35,13.99,14.33,17.66,3.06,11.46-9.8,18.53-19.11,9.85C-2.65,296.1-10.03,236.71,13.44,192.35c8.56-16.19,20.83-28.99,34.98-40.4l.12-90.87C50.62,30.75,77.33,3.41,107.62.35c4.56-.46,13.94-.46,18.5,0ZM163.83,139.66V61.83c0-3.68-3.5-12.51-5.32-16.01-16.76-32.21-66.51-32.21-83.27,0-1.82,3.5-5.32,12.33-5.32,16.01v77.83c30.47-12.32,63.44-12.32,93.92,0Z"/>
  <path d="M123.03,265.24c-3.11,3.25-9.22,3.25-12.33,0-3.95-4.13-1.75-11.41-2.36-16.48-.27-2.24-1.63-3.8-1.98-5.83-2.93-16.98,23.94-16.98,21.01,0-.35,2.03-1.71,3.6-1.98,5.83-.61,5.06,1.59,12.35-2.36,16.48Z"/>
</svg>