<?xml version="1.0" encoding="UTF-8"?>
<svg id="Layer_1" data-name="Layer 1" xmlns="http://www.w3.org/2000/svg" viewBox="0 0 205.62 137.75">
  <defs>
    <style>
      .cls-1 {
        fill: #fff;
      }

      .cls-2 {
        fill: none;
        stroke: #fff;
        stroke-miterlimit: 10;
      }
    </style>
  </defs>
  <path class="cls-1" d="M42.14,28.87h23.88v8.31h-24.22c-.84,8.65-8.57,15.08-16.63,17.19v33.49c9.35,1.94,15.79,9.18,17.4,18.48l41.22,4.59c5.3-17.01,27.84-20.08,36.97-4.4.59,1.01,1.71,4.31,2.54,4.41l39.96-4.17c.35-9.48,8.05-16.85,16.98-18.91l.17-33.73c-8.37-1.84-14.8-8.22-16.62-16.6l-.4-.29c-5.75.06-11.53-.22-17.27-.06-1.72.05-4.16,1.08-5.7-.16v-7.62l.52-.52h22.49c1.05-2.23,1.6-4.68,2.87-6.82,7.65-12.8,26.66-13.83,35.31-1.61,8.87,12.54,2.33,30.91-13.11,33.51l-.35,1.04v32.86c14.68,2.98,21.88,19.29,14.27,32.3-9.5,16.25-33.64,12.21-38.71-5.45l-40.04,4.22-.51.53c-3.17,24.8-36.83,24.08-40.41-.25l-40.74-4.5c-2.52,7.72-9.2,14.87-17.69,15.6-27.9,2.42-33.2-36.75-6.78-42.26l-.19-33.95C.94,51.01-5.67,30.97,5.63,18.48c11.8-13.04,33.04-6.35,36.51,10.39ZM18.88,20.31c-12.75,1.84-14.54,21.64-1.23,25.28,20.24,5.54,22.55-28.36,1.23-25.28ZM182.56,20.31c-15.42,2.12-13.89,26.26,2.31,25.88,17.97-.41,15.82-28.37-2.31-25.88ZM19.92,96.13c-16.53,1.81-14.43,27.9,3.33,25.83,16.19-1.89,13.39-27.66-3.33-25.83ZM182.57,96.13c-16.31,1.86-14.15,27.56,3.32,25.82,16.69-1.66,13.96-27.8-3.32-25.82ZM111.93,125.68c11.41-11.59-6.69-28.75-17.54-17.02-10.67,11.53,6.32,28.43,17.54,17.02Z"/>
  <path class="cls-1" d="M100.54.22c3.77-.59,5.73,0,8.97,1.59,8.1,3.96,16.07,9.41,24.1,13.62,1.56,1.03,2.39,2.79,2.66,4.61-1.09,16.3,1.45,34.48.01,50.56-.39,4.4-5.59,7.87-9.13,9.91-14.64,8.47-32.76,8.86-47.4.22-3.6-2.13-9.13-6.03-9.58-10.49,1.08-15.94-1.45-33.8-.02-49.51.38-4.14,2.3-5.08,5.45-7.01,6.21-3.81,15.42-9.45,21.89-12.37.83-.38,2.18-.98,3.04-1.11ZM128.61,21.31c-6.78-3.1-13.04-7.24-19.66-10.62-3.85-1.96-4.81-3.42-9.01-1.38-6.24,3.02-14,7.27-19.95,10.85-3.68,2.22-1.19,3.53,1.36,5.33,12.69,8.92,30.27,9.47,43.27.89,1.23-.81,5.1-3.31,3.99-5.08ZM78.13,34.06v12.29c12.41,11.48,32.46,12.44,46.48,3.22.94-.62,3.81-2.57,3.89-3.55.23-2.72-.8-6.22.17-9.03l-.53-2.92c-14.66,10.68-35.26,10.39-50.01,0ZM78.13,57.26v11.94c10.13,9.71,25.83,11.62,38.85,7.01,2.09-.74,11.17-4.99,11.53-7.01.19-1.63-.28-3.34-.22-4.86.07-2.13.67-4.34.37-6.58-.06-.48.19-.6-.51-.51-13.35,9.38-31.97,10.1-46.21,2.25-.52-.29-3.58-2.51-3.8-2.26Z"/>
  <path class="cls-2" d="M182.57,96.13c17.28-1.97,20.01,24.16,3.32,25.82-17.47,1.74-19.64-23.96-3.32-25.82Z"/>
  <path class="cls-2" d="M19.92,96.13c16.72-1.83,19.52,23.94,3.33,25.83-17.75,2.07-19.86-24.02-3.33-25.83ZM25.88,100.18c-1.92-1.76-5.2-1.56-7.61-1.03-.07.65.73.28,1.11.24,2.6-.25,4.02-.17,6.5.79Z"/>
  <path class="cls-2" d="M111.93,125.68c-11.22,11.4-28.21-5.49-17.54-17.02,10.85-11.72,28.94,5.43,17.54,17.02Z"/>
  <path class="cls-2" d="M182.56,20.31c18.13-2.49,20.28,25.47,2.31,25.88-16.21.37-17.73-23.77-2.31-25.88ZM187.83,23.34c-2.22-.49-4.47-.59-6.64.1-.36.12-1.05.09-.96.58,2.42-.65,4.04-.68,6.5-.44.38.04,1.18.41,1.11-.24ZM175.03,35.79v-5.02c0-.61,1.31-2.32,1.39-3.11-.67-.11-1.16,1.34-1.31,1.81-.38,1.14-.47,2.28-.74,3.44l.67,2.89Z"/>
  <path class="cls-2" d="M18.88,20.31c21.32-3.08,19.01,30.82-1.23,25.28-13.31-3.64-11.51-23.44,1.23-25.28ZM25.53,23.68c-2.55-.92-5.4-1.18-7.96-.18,2.68-.27,4.3-.22,6.91.37.35.08,1.13.46,1.05-.19ZM13.07,38.91c-.63-1.86-1.67-3.71-1.69-5.75,0-1.23.59-2.43.84-3.58.08-.35.47-1.13-.19-1.05-1.34,3.33-1.58,7.58,1.03,10.38Z"/>
  <path class="cls-1" d="M25.88,100.18c-2.48-.96-3.91-1.04-6.5-.79-.38.04-1.18.41-1.11-.24,2.41-.53,5.69-.73,7.61,1.03Z"/>
  <path class="cls-1" d="M175.03,35.79l-.67-2.89c.28-1.16.37-2.29.74-3.44.15-.46.64-1.92,1.31-1.81-.07.8-1.39,2.5-1.39,3.11v5.02Z"/>
  <path class="cls-1" d="M187.83,23.34c.07.65-.73.28-1.11.24-2.46-.24-4.08-.21-6.5.44-.08-.5.6-.47.96-.58,2.18-.69,4.43-.59,6.64-.1Z"/>
  <path class="cls-1" d="M13.07,38.91c-2.61-2.8-2.37-7.06-1.03-10.38.65-.07.26.7.19,1.05-.25,1.15-.85,2.35-.84,3.58.01,2.03,1.06,3.89,1.69,5.75Z"/>
  <path class="cls-1" d="M25.53,23.68c.08.65-.7.27-1.05.19-2.6-.58-4.23-.64-6.91-.37,2.56-1,5.42-.74,7.96.18Z"/>
  <path class="cls-1" d="M47.3,68.69c16.72-1.83,19.52,23.94,3.33,25.83-17.75,2.07-19.86-24.02-3.33-25.83ZM53.26,72.75c-1.92-1.76-5.2-1.56-7.61-1.03-.07.65.73.28,1.11.24,2.6-.25,4.02-.17,6.5.79Z"/>
  <path class="cls-1" d="M154.29,68.69c16.72-1.83,19.52,23.94,3.33,25.83-17.75,2.07-19.86-24.02-3.33-25.83ZM160.25,72.75c-1.92-1.76-5.2-1.56-7.61-1.03-.07.65.73.28,1.11.24,2.6-.25,4.02-.17,6.5.79Z"/>
</svg>