<?xml version="1.0" encoding="UTF-8"?>
<svg id="Layer_1" data-name="Layer 1" xmlns="http://www.w3.org/2000/svg" viewBox="0 0 32 32">
  <defs>
    <style>
      .cls-1 {
        fill: #f1f0f0;
      }
    </style>
  </defs>
  <path class="cls-1" d="M21.24,18.3c2.4-.27,5.22.16,7.66-.01,1.57.18,2.89,1.5,3.03,3.08.21,2.38-.15,5.05,0,7.46-.17,1.62-1.47,2.92-3.1,3.09-2.41-.15-5.09.21-7.47,0-1.6-.14-2.94-1.5-3.1-3.09.18-2.42-.25-5.21.02-7.58.17-1.48,1.47-2.78,2.95-2.95ZM21.53,20.57c-.57.12-.91.5-.98,1.08-.24,2.14.18,4.71,0,6.89.09.68.49,1.04,1.17,1.1,2.17.19,4.63-.15,6.83,0,.68-.09,1.04-.49,1.11-1.17.19-2.17-.15-4.63,0-6.83-.08-.63-.47-1.03-1.1-1.1-2.17-.24-4.81.17-7.03.02Z"/>
  <path class="cls-1" d="M5.09.1c3.09-.31,6.29-.06,7.92,2.92,1.1,2,1.03,6.24-.24,8.17-1.72,2.62-4.69,2.77-7.56,2.54C2.57,13.51.28,11.22.06,8.57-.25,4.8.57.56,5.09.1ZM5.38,2.38c-3.06.34-3.22,3.34-3.05,5.78.23,3.28,3.25,3.51,5.88,3.3,3.22-.25,3.44-3.31,3.24-5.87-.25-3.25-3.48-3.5-6.07-3.21Z"/>
  <path class="cls-1" d="M5.09,18.3c3.09-.31,6.29-.06,7.92,2.92,1.1,2,1.03,6.24-.24,8.17-1.72,2.62-4.69,2.77-7.56,2.54-2.65-.22-4.94-2.51-5.16-5.15-.31-3.78.51-8.01,5.04-8.47ZM5.38,20.57c-3.06.34-3.22,3.34-3.05,5.78.23,3.28,3.25,3.51,5.88,3.3,3.22-.25,3.44-3.31,3.24-5.87-.25-3.25-3.48-3.5-6.07-3.21Z"/>
  <path class="cls-1" d="M24.38.1c5.4-.5,9.3,5.06,6.81,9.93-2.22,4.34-8.21,4.98-11.35,1.24C16.36,7.12,19.02.6,24.38.1ZM24.66,2.38c-6.33.63-4.77,10.44,1.54,8.93,5.39-1.29,4.02-9.48-1.54-8.93Z"/>
</svg>