<?xml version="1.0" encoding="UTF-8"?>
<svg id="Layer_1" data-name="Layer 1" xmlns="http://www.w3.org/2000/svg" viewBox="0 0 337.88 337.05">
  <path d="M174.97,195.17c-.45,25.89.56,51.87.02,77.76-.18,8.51.16,21.34-.77,29.28-.64,5.52-6.99,7.74-10.55,3.76-3.32-3.72-.78-16.1-.7-21.01.44-29.91-.39-59.87-.04-89.78l-44.77,44.21c-6.78,3.53-12.47-4.1-7.43-9.68,15.35-12.98,29.28-32.35,44.69-44.68,8.68-6.95,17.87-7.23,26.65-.35,10.68,8.36,31.36,29.9,40.58,40.53,3.07,3.54,9.55,10.44,2.91,14.19-6.29,3.55-8.94-2.93-12.29-6.31-12.63-12.77-25.36-25.48-38.31-37.91Z"/>
  <path d="M174.97,141.1l43.93-42.81c6.68-4.91,13.66,2.94,8.28,9.03-15.3,13.47-29.17,31.82-45.09,44.28-8.61,6.73-18.19,6.43-26.65-.35-10.87-8.7-30.8-29.37-40.18-40.18-1.85-2.13-5.56-6.03-5.67-8.66-.23-5.42,5.41-8.2,9.78-5.21l43.59,43.9c.44-25.64-.55-51.37-.02-77.01.18-8.51-.15-21.33.77-29.28.61-5.31,6.29-7.57,10.17-4.13s1.16,16.49,1.08,21.39c-.52,29.65.45,59.38.04,89.03Z"/>
  <path d="M38.11.12c4.25-.45,6.71.54,10.28.57,22.77.21,45.56-.26,68.33.01,6.64,1.04,6.95,11.1-.69,11.99-17.79,2.06-42.51-.5-60.82-.8-20.57-.34-39.47,3.96-41.7,28.21s1.65,50.85-.06,75.05c-1.09,6.96-11.56,6.54-11.99-.69C5.43,79.38-15.01,5.7,38.11.12Z"/>
  <path d="M328.72,217.1c3.64-.79,7.08.99,7.67,4.78-1.37,24.62,1.98,51.48.07,75.84-4.35,55.46-77.86,34.73-113.84,38.69-7.33.12-8.91-9.5-2.06-11.89l75.68-.17c15-1.52,26.5-12.32,28.08-27.49,2.43-23.31-2.59-51.31.08-74.27.3-2.57,1.63-4.88,4.32-5.47Z"/>
  <path d="M5.78,215.58c3.32-.68,6.38,1.37,6.91,4.79,1.71,24.2-2.14,51.18.06,75.05,1.43,15.52,12.8,26.58,28.16,28.16l75.68.17c7.19,1.61,3.83,12.45-2.81,11.89-28.91-3.89-79.08,9.89-101.08-12.39-21.58-21.85-8.29-70.71-11.97-99.16.46-3.21,1.23-7.74,5.05-8.51Z"/>
  <path d="M222.06.82c15.71-.02,31.48-.52,47.18-.19,23.31.49,48.08-2.08,61.78,20.83,12.97,21.69,2.93,64.75,6.18,90,.45,8.58-8.46,13.94-12,4.44-1.69-23.96,2.12-50.67-.06-74.29-1.41-15.29-12.87-26.8-28.16-28.16-3.41-.3-7.09.21-10.53.02-21.63-1.18-43.41-.61-65.15-.94-6.22-1.39-4.45-10.14.75-11.7Z"/>
</svg>