<?xml version="1.0" encoding="UTF-8"?>
<svg id="Layer_1" data-name="Layer 1" xmlns="http://www.w3.org/2000/svg" viewBox="0 0 32 32">
  <defs>
    <style>
      .cls-1 {
        fill: #f37321;
      }

      .cls-2 {
        fill: #ffedd7;
      }
    </style>
  </defs>
  <circle class="cls-2" cx="16" cy="16" r="16"/>
  <g>
    <path class="cls-1" d="M15.98,6c5.54,0,10.02,4.48,10.02,10.02,0,5.54-4.5,9.99-10.09,9.98-5.42,0-9.91-4.53-9.91-9.97,0-5.54,4.47-10.03,9.98-10.03ZM15.96,24.57c4.75.02,8.59-3.8,8.61-8.55.02-4.69-3.81-8.57-8.48-8.59-4.77-.02-8.64,3.79-8.66,8.51-.01,4.76,3.8,8.62,8.53,8.64Z"/>
    <path class="cls-1" d="M13.14,15.99c0,.79-.64,1.43-1.43,1.43-.78,0-1.42-.63-1.43-1.41,0-.79.63-1.44,1.42-1.45.79,0,1.44.63,1.44,1.42Z"/>
    <path class="cls-1" d="M17.43,16c0,.79-.64,1.43-1.43,1.43-.78,0-1.42-.64-1.42-1.42,0-.79.63-1.44,1.42-1.44.79,0,1.43.64,1.44,1.43Z"/>
    <path class="cls-1" d="M21.71,16c0,.79-.64,1.43-1.43,1.43-.78,0-1.42-.64-1.42-1.42,0-.79.63-1.44,1.42-1.44.79,0,1.43.64,1.44,1.43Z"/>
  </g>
</svg>