<?xml version="1.0" encoding="UTF-8"?>
<svg id="Layer_1" data-name="Layer 1" xmlns="http://www.w3.org/2000/svg" viewBox="0 0 32 32" fill="#ffffff">
  <path d="M17.12,0l1.94.28c11.55,2.27,16.93,16.08,9.58,25.53C20.12,36.73,2.97,32.41.29,19.06L.01,17.12c.03-.74-.05-1.52,0-2.25C.49,7.1,7.11.48,14.87,0h2.25ZM15.24,2.02C4.18,2.66-1.86,15.35,4.77,24.33c6.57,8.9,20.48,6.9,24.32-3.44,3.5-9.41-3.85-19.45-13.86-18.87Z"/>
  <path d="M17,15h7.09c.38,0,.78.6.79.97,0,.39-.37,1.03-.79,1.03h-7.09v7.09c0,.38-.6.78-.97.79-.39,0-1.03-.38-1.03-.79v-7.09h-7.09c-.38,0-.78-.6-.79-.97,0-.39.37-1.03.79-1.03h7.09v-7.09c0-.41.64-.8,1.03-.79.37,0,.97.41.97.79v7.09Z"/>
</svg>