<?xml version="1.0" encoding="UTF-8"?>
<svg id="Layer_1" data-name="Layer 1" xmlns="http://www.w3.org/2000/svg" viewBox="0 0 32 32">
  <defs>
    <style>
      .cls-1 {
        fill: #29a3dc;
      }

      .cls-2 {
        fill: #e1f2fc;
      }
    </style>
  </defs>
  <circle class="cls-2" cx="16" cy="16" r="16"/>
  <path class="cls-1" d="M16.12,6c.14.11.2.25.19.42,0,.15,0,.3,0,.45.33.03.65.06.96.1,1.69.23,3.19.9,4.51,1.97.12.09.23.19.34.29.23.21.27.37.13.52-.14.15-.29.13-.54-.09-.78-.7-1.66-1.25-2.64-1.63-.88-.34-1.79-.52-2.75-.56,0,.06-.02.11-.02.15,0,.54,0,1.08,0,1.62,0,.14.05.17.18.18,2.89.18,5.4,2.37,5.96,5.21.07.34.1.68.16,1.04h1.93c-.03-.33-.05-.65-.11-.98-.24-1.51-.83-2.86-1.79-4.06-.15-.19-.15-.36,0-.48.15-.12.31-.08.47.12,1.08,1.36,1.73,2.91,1.95,4.63.03.25.04.5.06.78.18,0,.35,0,.52,0,.23,0,.36.11.36.3,0,.18-.13.3-.36.3-.17,0-.34,0-.53,0-.11,2.39-.98,4.44-2.66,6.13-1.68,1.69-3.74,2.57-6.15,2.68,0,.19,0,.37,0,.56,0,.21-.13.33-.31.33-.17,0-.28-.12-.29-.33,0-.18,0-.36,0-.56-1.91-.08-3.62-.67-5.14-1.8-.63.43-1.37.34-1.86-.16-.4-.42-.55-1.14-.09-1.8-1.08-1.5-1.66-3.17-1.73-5.05-.15,0-.3,0-.45,0-.18.01-.33-.04-.44-.19v-.23c.11-.14.25-.2.42-.18.15,0,.31,0,.49,0,0-.15,0-.28,0-.4,0-.13.02-.26.04-.39.21-1.64.8-3.12,1.81-4.44.07-.1.1-.16.03-.29-.26-.5-.24-1.01.11-1.47.34-.46.81-.65,1.37-.53.22.05.42.16.64.25,1.43-.96,3.03-1.48,4.79-1.55,0-.17,0-.32,0-.47-.01-.18.05-.32.19-.42h.23ZM9.29,10.74c-1.13,1.47-1.73,3.11-1.81,4.96.62,0,1.22,0,1.81,0,.11,0,.14-.05.15-.15.02-.24.04-.48.08-.72.12-.69.35-1.34.68-1.96.12-.23.4-.28.51-.07.05.1.04.25,0,.36-.14.4-.34.77-.46,1.18-.13.43-.18.88-.27,1.34h2.63c.31-1.76,1.33-2.78,3.08-3.08v-2.58s-.07,0-.09,0c-.04,0-.08,0-.12,0-1,.1-1.93.41-2.77.97-.48.32-.9.7-1.28,1.13-.17.2-.42.19-.52-.01-.07-.15-.02-.27.08-.39.98-1.13,2.19-1.86,3.66-2.17.34-.07.69-.11,1.04-.16v-1.92c-1.63.07-3.1.55-4.44,1.45.24.62.17,1.17-.31,1.61-.48.45-1.04.49-1.64.2ZM10.94,22.85c1.06.92,3.65,1.82,4.75,1.65,0-.6,0-1.2,0-1.81,0-.04-.09-.11-.15-.12-.3-.05-.61-.07-.91-.13-2.58-.51-4.72-2.73-5.12-5.32-.04-.27-.07-.54-.11-.81h-1.93c.01.16.03.31.04.46.13,1.48.63,2.83,1.46,4.06.08.11.14.13.27.08.76-.28,1.58.15,1.8.93.09.34.05.67-.1.99ZM22.59,16.31c0,.06-.02.11-.02.16-.04.72-.21,1.41-.49,2.07-.05.13-.04.2.05.3.45.5.47,1.21.07,1.74-.39.52-1.08.69-1.68.42-.12-.06-.19-.04-.29.04-.85.71-1.81,1.19-2.9,1.4-.33.06-.66.1-1.01.15v1.92c2.5-.14,4.58-1.13,6.2-3.03,1.27-1.49,1.92-3.22,2.01-5.18h-1.93ZM21.97,15.69c-.09-3.12-2.82-5.62-5.65-5.65v2.59c.81.09,1.51.41,2.08.99.57.57.89,1.27.98,2.08h2.6ZM10.03,16.31c.14,3.34,3.06,5.66,5.66,5.64v-2.57c-1.76-.31-2.78-1.33-3.08-3.09-.82,0-1.64,0-2.46,0-.04,0-.08,0-.13,0ZM19.93,20.53c-.3-.55-.32-1.08.05-1.58.37-.51.9-.64,1.5-.52.29-.58.54-1.67.49-2.1h-2.59c-.09.81-.41,1.51-.99,2.08-.57.57-1.27.89-2.07.98v2.61c1.38-.09,2.57-.57,3.61-1.46ZM15.69,13.24c-1.25.1-2.37,1.22-2.45,2.44h2.45v-2.44ZM18.76,15.69c-.09-1.24-1.2-2.36-2.44-2.45v2.45h2.44ZM15.69,16.32h-2.45c.16,1.44,1.39,2.38,2.45,2.44v-2.44ZM18.76,16.32h-2.44v2.45c1.32-.17,2.36-1.22,2.44-2.45ZM10.5,22.2c0-.44-.35-.78-.8-.78-.43,0-.77.35-.77.78,0,.44.34.79.79.79.44,0,.79-.35.78-.79ZM10.78,9.54c0-.44-.34-.78-.77-.79-.43,0-.8.35-.8.79,0,.43.37.8.8.8.43,0,.78-.36.78-.79ZM21.87,19.77c0-.44-.34-.8-.78-.8-.43,0-.78.35-.79.78,0,.43.34.79.77.79.45,0,.8-.33.8-.77Z"/>
</svg>