<?xml version="1.0" encoding="UTF-8"?>
<svg id="Layer_1" data-name="Layer 1" xmlns="http://www.w3.org/2000/svg" viewBox="0 0 32 32">
  <defs>
    <style>
      .cls-1 {
        fill: #1bb680;
      }

      .cls-2 {
        fill: #d5ecdf;
      }
    </style>
  </defs>
  <circle class="cls-2" cx="16" cy="16" r="16"/>
  <g>
    <path class="cls-1" d="M22.42,14.32c-.09.56-.67,1.04-1.24,1.07l-5.83.02c.02.39-.58.56-.65.66-.45.65,1.18,2.46,1.08,3.24-.06.5-.71.58-1.12.57v2.57c1.09-.02,1.14,2.13.18,2.28-.45.07-2.3.07-2.74-.01-.33-.06-.7-.41-.73-.76v-7.82c-.06-.15-.32-.13-.44-.24-.13-.11-.2-.45-.24-.47-.07-.04-.73-.07-.98-.18-.22-.09-.67-.5-.79-.7-.19-.31-.17-.81-.27-1-.09-.17-.5-.24-.6-.67-.09-.37-.06-1.42-.04-1.84s.08-.59.41-.86c.08-.06.23-.06.25-.08.03-.03.07-.6.14-.79.26-.7.98-1.1,1.7-1.13h9.21c-.09-.36.11-.79.5-.88s2.66-.07,3.11-.01c.64.09.69.77.64,1.3-.08.97-.78.88-1.57.85v4.88ZM20.11,14.96h1.3c.1,0,.56-.46.56-.56v-5.22l.11-.11h1.19s.2-.12.22-.15c.02-.33.2-1.11-.18-1.23-.29-.09-2.41-.08-2.8-.03-.15.02-.41.08-.41.26v7.05ZM19.73,8.62h-9.65c-.06,0-.56.32-.63.41-.07.08-.24.38-.26.48-.11.44-.11,3.99-.02,4.5.04.19.21.49.35.62.06.06.53.33.56.33h8.16v-2.5c0-.14.37-.14.37,0v2.5h1.12v-6.34ZM8.7,13.09v-2.61c-.09.02-.17.14-.19.22-.08.26-.08,1.74-.03,2.05.02.13.08.3.22.34ZM14.89,15.4h-3.73l.19.22c1.04-.07,2.18.09,3.21,0,.17-.01.35,0,.33-.23ZM14.29,22.86v-6.75l-.11-.11h-2.42v7.94c0,.17.4.38.56.41.3.05,2.36.04,2.55-.05.31-.15.12-.93.16-1.24l-.11-.11-.62-.09ZM14.66,19.43l.64-.07c.19-.27-.41-1.33-.64-1.57v1.64Z"/>
    <path class="cls-1" d="M18.24,9.81h-7.57c-.14,0-.14-.37,0-.37h7.46l.11.37Z"/>
  </g>
</svg>