<?xml version="1.0" encoding="UTF-8"?>
<svg id="Layer_1" data-name="Layer 1" xmlns="http://www.w3.org/2000/svg" viewBox="0 0 32 32">
  <defs>
    <style>
      .cls-1 {
        fill: #fde2e1;
      }

      .cls-2 {
        fill: #ef4443;
      }
    </style>
  </defs>
  <circle class="cls-1" cx="16" cy="16" r="16"/>
  <g>
    <path class="cls-2" d="M26,21.24s-.03.04-.04.06c-.17.43-.48.64-.95.64-1.51,0-3.02,0-4.53,0-.07,0-.14,0-.24,0,.11.22.2.41.3.59.02.04.11.06.16.07.29,0,.57,0,.86,0,.23,0,.36.11.37.29,0,.18-.14.3-.38.3-1.78,0-3.55,0-5.33,0-1.89,0-3.79,0-5.68,0-.07,0-.14,0-.21,0-.16-.03-.26-.14-.25-.3,0-.16.1-.27.27-.28.31,0,.62,0,.94-.01.07,0,.17-.06.2-.12.1-.16.17-.33.26-.52-.09,0-.16-.01-.22-.01-1.49,0-2.98-.01-4.47,0-.62,0-1.07-.42-1.06-1.06.02-3.67.02-7.34,0-11.01,0-.63.44-1.05,1.05-1.05,5.91.01,11.82.01,17.73,0,.57,0,1,.15,1.22.71v11.71ZM25.41,20.09v-.22c0-3.33,0-6.65,0-9.98,0-.38-.11-.49-.49-.49-5.95,0-11.9,0-17.84,0-.38,0-.49.11-.49.49,0,3.33,0,6.65,0,9.98,0,.07,0,.14,0,.22h.29c5.36,0,10.72,0,16.09,0,.09,0,.18,0,.27.01.15.02.25.12.24.26-.01.1-.1.22-.19.28-.07.05-.19.04-.28.04-5.39,0-10.78,0-16.16,0h-.24c-.06.54.04.66.55.66,1.84,0,3.67,0,5.51,0,.07,0,.14,0,.21,0,.17.01.26.1.28.27.01.16-.09.29-.26.31-.12.01-.23,0-.35,0-.05,0-.12.01-.13.04-.11.19-.2.4-.31.61h7.79c-.09-.17-.17-.33-.23-.49-.05-.14-.14-.17-.28-.17-1.7,0-3.4,0-5.1,0-.08,0-.16,0-.23-.02-.15-.04-.24-.15-.22-.3.01-.15.1-.25.26-.27.08,0,.16,0,.23,0,3.51,0,7.01,0,10.52,0,.07,0,.14,0,.21,0,.22-.02.33-.13.34-.35,0-.09,0-.19,0-.3-.31,0-.6,0-.89,0-.23,0-.36-.12-.35-.3,0-.17.12-.28.32-.29.3,0,.6,0,.92,0Z"/>
    <path class="cls-2" d="M20.68,11.04s-.05.11-.1.17c-.04.06-.1.1-.15.15-2.41,2.41-4.82,4.82-7.23,7.23-.06.06-.12.12-.19.17-.13.08-.25.05-.35-.05-.09-.1-.11-.22-.04-.34.04-.06.09-.11.14-.16,2.44-2.44,4.88-4.88,7.33-7.33.05-.05.11-.11.18-.14.19-.09.42.06.41.31Z"/>
    <path class="cls-2" d="M17.87,11.66s-.07.14-.13.21c-1.43,1.44-2.87,2.87-4.3,4.31-.15.15-.32.16-.45.04-.13-.13-.12-.29.04-.46.69-.69,1.38-1.38,2.07-2.07.72-.72,1.44-1.44,2.15-2.15.06-.06.12-.12.19-.16.18-.1.42.04.43.3Z"/>
  </g>
</svg>